<?xml version="1.0" standalone="no"?>
<!DOCTYPE svg PUBLIC "-//W3C//DTD SVG 20010904//EN"
 "http://www.w3.org/TR/2001/REC-SVG-20010904/DTD/svg10.dtd">
<svg version="1.0" xmlns="http://www.w3.org/2000/svg"
 width="186.000000pt" height="186.000000pt" viewBox="0 0 186.000000 186.000000"
 preserveAspectRatio="xMidYMid meet">
<metadata>
Created by potrace 1.11, written by Peter Selinger 2001-2013
</metadata>
<g transform="translate(0.000000,186.000000) scale(0.100000,-0.100000)"
fill="#000000" stroke="none">
<path d="M40 930 l0 -890 890 0 890 0 0 890 0 890 -890 0 -890 0 0 -890z m922
502 c59 -140 108 -258 108 -263 0 -5 -23 -27 -51 -49 -45 -36 -57 -40 -105
-40 l-54 0 0 -65 c0 -73 -11 -85 -74 -85 l-36 0 0 -80 0 -80 39 0 c63 0 71
-15 71 -134 0 -115 -1 -116 -89 -209 l-45 -47 -143 0 -143 0 0 -104 c0 -57 -3
-111 -6 -120 -8 -21 -50 -21 -58 0 -3 9 -6 71 -6 139 0 99 3 127 16 139 13 13
42 16 166 16 l150 0 43 48 c44 47 44 47 45 125 l0 77 -39 0 c-65 0 -71 14 -71
154 0 81 4 126 12 134 7 7 31 12 55 12 l43 0 0 63 c0 36 5 68 12 75 7 7 40 12
78 12 48 0 71 5 89 19 l24 19 -96 225 c-54 124 -97 237 -97 252 0 23 4 26 27
23 24 -3 34 -22 135 -256z m-352 8 l0 -50 -50 0 -50 0 0 50 0 50 50 0 50 0 0
-50z m948 -550 c1 -245 0 -455 -3 -467 -6 -27 -49 -32 -59 -7 -9 22 -8 909 1
918 4 4 19 6 33 4 l25 -3 3 -445z m-190 0 c1 -146 0 -275 -3 -287 -6 -27 -49
-32 -59 -7 -9 22 -8 549 1 558 4 4 19 6 33 4 l25 -3 3 -265z m-170 15 c3 -156
0 -175 -32 -175 -13 0 -27 7 -30 16 -8 22 -8 279 1 288 4 4 19 6 33 4 l25 -3
3 -130z"/>
</g>
</svg>
